<?xml version="1.0" encoding="UTF-8"?>
<svg width="900px" height="579px" viewBox="0 0 900 579" version="1.1" xmlns="http://www.w3.org/2000/svg" xmlns:xlink="http://www.w3.org/1999/xlink">
    <!-- Generator: Sketch 46.2 (44496) - http://www.bohemiancoding.com/sketch -->
    <title>Group</title>
    <desc>Created with Sketch.</desc>
    <defs>
        <path d="M36,0.00186258452 L433.882395,0.00186258452 L862,0.00186258452 L862,0.00186258452 C880.225397,0.00186258452 895,14.7764658 895,33.0018626 L895,510 L895,510 C895,528.225397 880.225397,543 862,543 L36,543 L36,543 C17.7746033,543 3,528.225397 3,510 L3,33.0018626 L3,33.0018626 C3,14.7764658 17.7746033,0.00186258452 36,0.00186258452 Z" id="path-1"></path>
    </defs>
    <g id="Page-1" stroke="none" stroke-width="1" fill="none" fill-rule="evenodd">
        <g id="Desktop-HD-Copy" transform="translate(-270.000000, -135.000000)">
            <g id="Group" transform="translate(271.000000, 139.000000)">
                <g id="Rectangle-5">
                    <path stroke="#1A7787" stroke-width="10" d="M36,5.00186258 C20.536027,5.00186258 8,17.5378896 8,33.0018626 L8,510 C8,525.463973 20.536027,538 36,538 L862,538 C877.463973,538 890,525.463973 890,510 L890,33.0018626 C890,17.5378896 877.463973,5.00186258 862,5.00186258 L36,5.00186258 Z"></path>
                    <use stroke="#FFFFFF" stroke-width="5" xlink:href="#path-1"></use>
                    <path stroke="#1A7787" stroke-width="4" d="M36,-1.99813742 L862,-1.99813742 C881.329966,-1.99813742 897,13.6718963 897,33.0018626 L897,510 C897,529.329966 881.329966,545 862,545 L36,545 C16.6700338,545 1,529.329966 1,510 L1,33.0018626 C1,13.6718963 16.6700338,-1.99813742 36,-1.99813742 Z"></path>
                </g>
                <path d="M373,3 L527,3 L527,3 L527,3 C527,14.045695 518.045695,23 507,23 L392,23 L392,23 C381.50659,23 373,14.4934102 373,4 L373,3 Z" id="Rectangle-2" fill="#1A7787"></path>
                <path d="M9.9718389,554 L887.304213,554 L887.304213,554 C889.356624,554 891.200585,555.254246 891.954583,557.163141 L896.299495,568.163141 L896.299495,568.163141 C897.313965,570.73147 896.054313,573.635901 893.485984,574.650371 C892.90113,574.881383 892.277949,575 891.649125,575 L6.70232876,575 L6.70232876,575 C3.94090501,575 1.70232876,572.761424 1.70232876,570 C1.70232876,569.517641 1.77212792,569.03782 1.90955652,568.575453 L5.17906667,557.575453 L5.17906667,557.575453 C5.80949963,555.454413 7.75909007,554 9.9718389,554 Z" id="Rectangle-6" fill="#E3DDE0"></path>
            </g>
        </g>
    </g>
</svg>